<mxfile host="app.diagrams.net" modified="2023-06-14T17:35:41.042Z" agent="Mozilla/5.0 (X11; Ubuntu; Linux x86_64; rv:109.0) Gecko/20100101 Firefox/110.0" etag="bCimrQiydHMzEKiklPgp" version="21.3.8" type="github">
  <diagram name="Page-1" id="5yKnBs_UWPr3UIrcpY0c">
    <mxGraphModel dx="656" dy="702" grid="1" gridSize="10" guides="1" tooltips="1" connect="1" arrows="1" fold="1" page="1" pageScale="1" pageWidth="850" pageHeight="1100" math="0" shadow="0">
      <root>
        <mxCell id="0" />
        <mxCell id="1" parent="0" />
        <mxCell id="ibODm66RZq7T-A_ePRjN-3" value="" style="ellipse;whiteSpace=wrap;html=1;" vertex="1" parent="1">
          <mxGeometry x="100" y="310" width="120" height="80" as="geometry" />
        </mxCell>
        <mxCell id="ibODm66RZq7T-A_ePRjN-16" style="edgeStyle=orthogonalEdgeStyle;rounded=0;orthogonalLoop=1;jettySize=auto;html=1;entryX=0;entryY=0.5;entryDx=0;entryDy=0;" edge="1" parent="1" source="ibODm66RZq7T-A_ePRjN-4" target="ibODm66RZq7T-A_ePRjN-14">
          <mxGeometry relative="1" as="geometry">
            <Array as="points">
              <mxPoint x="450" y="410" />
              <mxPoint x="440" y="410" />
              <mxPoint x="440" y="500" />
            </Array>
          </mxGeometry>
        </mxCell>
        <mxCell id="ibODm66RZq7T-A_ePRjN-4" value="empleado" style="rounded=1;whiteSpace=wrap;html=1;" vertex="1" parent="1">
          <mxGeometry x="400" y="300" width="120" height="60" as="geometry" />
        </mxCell>
        <mxCell id="ibODm66RZq7T-A_ePRjN-7" style="edgeStyle=orthogonalEdgeStyle;rounded=0;orthogonalLoop=1;jettySize=auto;html=1;entryX=1;entryY=0.5;entryDx=0;entryDy=0;endArrow=none;endFill=0;" edge="1" parent="1" source="ibODm66RZq7T-A_ePRjN-5" target="ibODm66RZq7T-A_ePRjN-6">
          <mxGeometry relative="1" as="geometry">
            <Array as="points">
              <mxPoint x="1050" y="710" />
            </Array>
          </mxGeometry>
        </mxCell>
        <mxCell id="ibODm66RZq7T-A_ePRjN-5" value="empresa" style="rounded=1;whiteSpace=wrap;html=1;" vertex="1" parent="1">
          <mxGeometry x="1000" y="480" width="120" height="60" as="geometry" />
        </mxCell>
        <mxCell id="ibODm66RZq7T-A_ePRjN-9" style="edgeStyle=orthogonalEdgeStyle;rounded=0;orthogonalLoop=1;jettySize=auto;html=1;endArrow=none;endFill=0;" edge="1" parent="1" source="ibODm66RZq7T-A_ePRjN-6" target="ibODm66RZq7T-A_ePRjN-8">
          <mxGeometry relative="1" as="geometry">
            <Array as="points">
              <mxPoint x="790" y="710" />
            </Array>
          </mxGeometry>
        </mxCell>
        <mxCell id="ibODm66RZq7T-A_ePRjN-6" value="tiene" style="rhombus;whiteSpace=wrap;html=1;" vertex="1" parent="1">
          <mxGeometry x="840" y="670" width="80" height="80" as="geometry" />
        </mxCell>
        <mxCell id="ibODm66RZq7T-A_ePRjN-15" style="edgeStyle=orthogonalEdgeStyle;rounded=0;orthogonalLoop=1;jettySize=auto;html=1;" edge="1" parent="1" source="ibODm66RZq7T-A_ePRjN-8" target="ibODm66RZq7T-A_ePRjN-14">
          <mxGeometry relative="1" as="geometry" />
        </mxCell>
        <mxCell id="ibODm66RZq7T-A_ePRjN-8" value="departamento" style="rounded=1;whiteSpace=wrap;html=1;" vertex="1" parent="1">
          <mxGeometry x="730" y="470" width="120" height="60" as="geometry" />
        </mxCell>
        <mxCell id="ibODm66RZq7T-A_ePRjN-10" value="1,1" style="text;html=1;align=center;verticalAlign=middle;resizable=0;points=[];autosize=1;strokeColor=none;fillColor=none;" vertex="1" parent="1">
          <mxGeometry x="790" y="618" width="40" height="30" as="geometry" />
        </mxCell>
        <mxCell id="ibODm66RZq7T-A_ePRjN-11" value="1,N" style="text;html=1;align=center;verticalAlign=middle;resizable=0;points=[];autosize=1;strokeColor=none;fillColor=none;" vertex="1" parent="1">
          <mxGeometry x="960" y="678" width="40" height="30" as="geometry" />
        </mxCell>
        <mxCell id="ibODm66RZq7T-A_ePRjN-12" value="1,N" style="text;html=1;align=center;verticalAlign=middle;resizable=0;points=[];autosize=1;strokeColor=none;fillColor=none;" vertex="1" parent="1">
          <mxGeometry x="860" y="750" width="40" height="30" as="geometry" />
        </mxCell>
        <mxCell id="ibODm66RZq7T-A_ePRjN-14" value="contrata" style="rhombus;whiteSpace=wrap;html=1;" vertex="1" parent="1">
          <mxGeometry x="540" y="460" width="80" height="80" as="geometry" />
        </mxCell>
      </root>
    </mxGraphModel>
  </diagram>
</mxfile>
